<svg width="212" height="44" viewBox="0 0 212 44" fill="none" xmlns="http://www.w3.org/2000/svg">
<path d="M5.41075 43.44C4.06675 43.44 2.91475 43.088 1.95475 42.384C1.02675 41.68 0.56275 40.416 0.56275 38.592C0.56275 36.8 1.09075 34.928 2.14675 32.976C3.20275 31.024 4.67475 29.088 6.56275 27.168C8.48275 25.248 10.7068 23.44 13.2348 21.744C15.7948 20.016 18.5468 18.496 21.4908 17.184C24.4668 15.872 27.5548 14.832 30.7548 14.064C33.9548 13.296 37.1548 12.912 40.3548 12.912C43.2988 12.912 45.5868 13.328 47.2188 14.16C48.8507 14.992 49.6667 16.176 49.6667 17.712C49.6667 18.32 49.5548 18.912 49.3308 19.488C48.8828 20.704 48.0188 22.112 46.7388 23.712C45.4908 25.312 44.1948 26.912 42.8508 28.512C42.5628 28.864 42.1308 29.408 41.5548 30.144C41.0108 30.848 40.4028 31.664 39.7308 32.592C39.0908 33.52 38.4668 34.464 37.8588 35.424C37.2508 36.384 36.7548 37.296 36.3708 38.16C35.9868 38.992 35.7948 39.696 35.7948 40.272C35.7948 41.04 36.2108 41.424 37.0428 41.424C38.0348 41.424 39.2508 41.008 40.6908 40.176C42.1308 39.312 43.6668 38.208 45.2988 36.864C46.9628 35.488 48.5788 34 50.1468 32.4C51.7468 30.768 53.1868 29.168 54.4668 27.6C55.7468 26.032 56.7228 24.656 57.3948 23.472C58.0668 22.288 58.6268 21.344 59.0748 20.64C59.5228 19.904 60.1468 19.536 60.9468 19.536C61.1708 19.536 61.4748 19.616 61.8588 19.776C62.2428 19.904 62.5788 20.064 62.8668 20.256C63.1868 20.448 63.2988 20.656 63.2028 20.88C63.0748 21.168 62.8188 21.584 62.4348 22.128C62.0508 22.64 61.6668 23.104 61.2828 23.52C60.9308 23.936 60.6748 24.176 60.5148 24.24C59.9068 25.104 59.2668 26.272 58.5948 27.744C57.9548 29.184 57.3628 30.688 56.8188 32.256C56.6588 32.704 56.4348 33.376 56.1468 34.272C55.8908 35.136 55.6508 36.064 55.4268 37.056C55.2348 38.048 55.1388 38.96 55.1388 39.792C55.1388 40.496 55.2508 41.072 55.4748 41.52C55.6988 41.968 56.0828 42.192 56.6268 42.192C56.9788 42.192 57.3788 42.096 57.8268 41.904C58.2748 41.712 58.8028 41.408 59.4108 40.992C60.3388 40.384 61.5388 39.376 63.0108 37.968C64.5148 36.56 66.0828 35.024 67.7148 33.36C70.2108 30.864 72.7548 28.176 75.3468 25.296C77.9388 22.384 80.5468 19.696 83.1708 17.232C85.4108 15.12 87.6828 13.28 89.9868 11.712C92.3228 10.144 94.8028 9.024 97.4268 8.352C97.9388 8.256 98.4348 8.176 98.9148 8.112C99.4268 8.048 99.9388 8.016 100.451 8.016C101.027 8.016 101.603 8.064 102.179 8.16C103.331 8.416 104.195 8.96 104.771 9.792C105.347 10.592 105.635 11.552 105.635 12.672C105.635 14.176 105.123 15.808 104.099 17.568C103.075 19.328 101.555 20.896 99.5388 22.272C99.3788 22.4 99.2348 22.464 99.1068 22.464C99.0108 22.464 98.9628 22.416 98.9628 22.32C98.9628 22.256 99.0268 22.144 99.1548 21.984C99.2828 21.792 99.5068 21.6 99.8268 21.408C100.723 20.8 101.523 20.032 102.227 19.104C102.931 18.176 103.491 17.2 103.907 16.176C104.323 15.152 104.531 14.208 104.531 13.344C104.531 12.608 104.371 11.968 104.051 11.424C103.731 10.88 103.203 10.496 102.467 10.272C102.083 10.208 101.699 10.16 101.315 10.128C100.963 10.096 100.611 10.08 100.259 10.08C99.4588 10.08 98.6588 10.192 97.8588 10.416C95.7148 10.928 93.4748 11.84 91.1388 13.152C88.8348 14.464 86.6108 16.016 84.4668 17.808C82.5148 19.44 80.6268 21.2 78.8028 23.088C76.9788 24.976 75.2188 26.88 73.5228 28.8C71.8268 30.72 70.1948 32.56 68.6268 34.32C67.1548 35.984 65.6668 37.536 64.1628 38.976C62.6908 40.384 61.2508 41.52 59.8428 42.384C58.8508 43.024 57.8108 43.344 56.7228 43.344C55.7308 43.344 54.8828 42.992 54.1788 42.288C53.4748 41.616 53.1228 40.528 53.1228 39.024C53.1228 38.16 53.2508 37.04 53.5068 35.664C53.7948 34.256 54.1468 32.816 54.5627 31.344C55.0108 29.84 55.4748 28.512 55.9548 27.36C55.5708 27.84 54.9628 28.544 54.1308 29.472C53.3308 30.368 52.3868 31.392 51.2988 32.544C50.2108 33.696 49.0268 34.864 47.7468 36.048C46.4668 37.2 45.1388 38.272 43.7628 39.264C42.4188 40.256 41.0748 41.056 39.7308 41.664C38.4188 42.272 37.1548 42.576 35.9388 42.576C35.0428 42.576 34.3868 42.4 33.9708 42.048C33.5868 41.696 33.3948 41.232 33.3948 40.656C33.3948 39.952 33.6028 39.136 34.0188 38.208C34.4668 37.28 35.0268 36.304 35.6988 35.28C36.4028 34.224 37.1388 33.2 37.9068 32.208C38.6748 31.216 39.3948 30.304 40.0668 29.472C40.7388 28.64 41.2668 27.968 41.6508 27.456C42.5148 26.304 43.3308 25.152 44.0988 24C44.8668 22.816 45.4908 21.664 45.9708 20.544C46.4508 19.424 46.6908 18.416 46.6908 17.52C46.6908 16.368 46.2108 15.44 45.2508 14.736C44.2908 14.032 42.6268 13.68 40.2588 13.68C37.2828 13.68 34.2908 14.048 31.2828 14.784C28.2748 15.52 25.3628 16.544 22.5468 17.856C19.7628 19.136 17.1708 20.624 14.7708 22.32C12.3708 23.984 10.2748 25.76 8.48275 27.648C6.69075 29.504 5.28275 31.392 4.25875 33.312C3.26675 35.232 2.77075 37.072 2.77075 38.832C2.77075 40.336 3.05875 41.36 3.63475 41.904C4.24275 42.416 4.94675 42.672 5.74675 42.672C6.22675 42.672 6.72275 42.608 7.23475 42.48C7.74675 42.384 8.24275 42.272 8.72275 42.144C8.78675 42.112 8.89875 42.096 9.05875 42.096C9.44275 42.096 9.63475 42.192 9.63475 42.384C9.63475 42.512 9.52275 42.624 9.29875 42.72C8.69075 42.944 8.05075 43.12 7.37875 43.248C6.70675 43.376 6.05075 43.44 5.41075 43.44ZM92.8814 42.528C91.9214 42.528 91.0734 42.288 90.3374 41.808C89.6334 41.328 89.2814 40.432 89.2814 39.12C89.3134 38.448 89.4254 37.76 89.6174 37.056C89.8414 36.32 90.0814 35.632 90.3374 34.992C89.9214 35.472 89.2974 36.112 88.4654 36.912C87.6334 37.712 86.6894 38.528 85.6334 39.36C84.6094 40.16 83.5534 40.848 82.4654 41.424C81.3774 42 80.3534 42.288 79.3934 42.288C78.4334 42.288 77.6494 41.936 77.0414 41.232C76.6254 40.784 76.4174 40.192 76.4174 39.456C76.4174 38.528 76.7374 37.504 77.3774 36.384C78.0494 35.232 78.9454 34.096 80.0654 32.976C81.1854 31.824 82.4654 30.768 83.9054 29.808C85.3774 28.848 86.9134 28.096 88.5134 27.552C90.2414 26.944 91.7454 26.64 93.0254 26.64C95.2014 26.64 96.2894 27.568 96.2894 29.424C96.2894 29.584 96.2734 29.76 96.2414 29.952C96.2414 30.112 96.2254 30.288 96.1934 30.48C96.1294 30.864 96.0014 31.168 95.8094 31.392C95.6494 31.616 95.5214 31.728 95.4254 31.728C95.2654 31.728 95.2334 31.552 95.3294 31.2C95.3934 31.04 95.4254 30.88 95.4254 30.72C95.4254 30.528 95.4254 30.368 95.4254 30.24C95.4254 29.728 95.2974 29.328 95.0414 29.04C94.7854 28.72 94.3374 28.56 93.6974 28.56C93.1214 28.56 92.4014 28.688 91.5374 28.944C90.7054 29.168 89.8094 29.472 88.8494 29.856C87.8894 30.208 86.9614 30.608 86.0654 31.056C85.2014 31.504 84.4814 31.952 83.9054 32.4C82.9134 33.104 81.9854 33.888 81.1214 34.752C80.2574 35.616 79.5374 36.464 78.9614 37.296C78.3854 38.096 78.0494 38.832 77.9534 39.504C77.9214 39.6 77.9054 39.696 77.9054 39.792C77.9054 39.888 77.9054 39.968 77.9054 40.032C77.9054 40.608 78.0174 41.008 78.2414 41.232C78.4974 41.456 78.8174 41.568 79.2014 41.568C79.7774 41.568 80.4334 41.392 81.1694 41.04C81.9374 40.688 82.6414 40.288 83.2814 39.84C83.9214 39.392 84.3694 39.056 84.6254 38.832C85.6494 37.968 86.8014 37.024 88.0814 36C89.3614 34.944 90.4974 33.968 91.4894 33.072C91.6494 32.976 91.8254 32.928 92.0174 32.928C92.4654 32.928 92.8334 33.04 93.1214 33.264C93.2174 33.36 93.2654 33.488 93.2654 33.648C93.2654 33.808 93.2174 34.016 93.1214 34.272C93.0574 34.496 92.9614 34.752 92.8334 35.04C92.2894 36.16 91.8414 37.168 91.4894 38.064C91.1374 38.96 90.9614 39.712 90.9614 40.32C90.9614 41.28 91.4894 41.76 92.5454 41.76C93.3454 41.76 94.5294 41.472 96.0974 40.896C97.7934 40.256 99.4894 39.376 101.185 38.256C102.881 37.136 104.417 36 105.793 34.848C106.145 34.56 106.465 34.32 106.753 34.128C107.041 33.936 107.345 33.68 107.665 33.36C107.729 33.328 107.809 33.312 107.905 33.312C108.001 33.312 108.049 33.36 108.049 33.456C108.049 33.552 107.985 33.68 107.857 33.84C107.665 34.096 107.201 34.576 106.465 35.28C105.729 35.952 104.817 36.72 103.729 37.584C102.641 38.416 101.457 39.232 100.177 40.032C98.9294 40.8 97.6654 41.408 96.3854 41.856C95.9054 42.016 95.3454 42.16 94.7054 42.288C94.0974 42.448 93.4894 42.528 92.8814 42.528ZM111.296 42.624C110.56 42.624 109.856 42.544 109.184 42.384C108.544 42.224 107.952 41.984 107.408 41.664C106.704 41.216 106.176 40.704 105.824 40.128C105.504 39.52 105.344 38.88 105.344 38.208C105.344 37.088 105.728 35.92 106.496 34.704C107.264 33.488 108.272 32.336 109.52 31.248C110.8 30.128 112.144 29.2 113.552 28.464C114.416 28.016 115.264 27.696 116.096 27.504C116.928 27.312 117.68 27.216 118.352 27.216C119.12 27.216 119.76 27.328 120.272 27.552C120.784 27.776 121.056 28.064 121.088 28.416C121.216 29.28 120.976 30.112 120.368 30.912C119.76 31.68 119.008 32.368 118.112 32.976C117.216 33.584 116.4 34.096 115.664 34.512C115.536 34.608 115.408 34.656 115.28 34.656C115.056 34.656 115.024 34.496 115.184 34.176C115.376 33.824 115.728 33.52 116.24 33.264C116.656 33.04 117.104 32.736 117.584 32.352C118.064 31.936 118.48 31.504 118.832 31.056C119.184 30.576 119.36 30.16 119.36 29.808C119.36 29.2 118.848 28.896 117.824 28.896C117.152 28.896 116.336 29.12 115.376 29.568C114.416 30.016 113.408 30.608 112.352 31.344C111.328 32.048 110.368 32.848 109.472 33.744C108.576 34.608 107.84 35.488 107.264 36.384C106.72 37.28 106.448 38.096 106.448 38.832C106.448 39.536 106.672 40.112 107.12 40.56C107.6 40.976 108.192 41.28 108.896 41.472C109.632 41.632 110.384 41.712 111.152 41.712C111.536 41.712 111.92 41.696 112.304 41.664C112.688 41.632 113.04 41.584 113.36 41.52C115.024 41.168 116.704 40.56 118.4 39.696C120.128 38.832 121.792 37.84 123.392 36.72C124.992 35.6 126.432 34.48 127.712 33.36C127.776 33.328 127.856 33.312 127.952 33.312C128.08 33.312 128.144 33.344 128.144 33.408C128.144 33.504 128.08 33.632 127.952 33.792C127.728 34.176 127.264 34.672 126.56 35.28C125.888 35.888 125.104 36.512 124.208 37.152C123.344 37.792 122.496 38.4 121.664 38.976C120.832 39.52 120.144 39.952 119.6 40.272C118.416 40.944 117.088 41.504 115.616 41.952C114.144 42.4 112.704 42.624 111.296 42.624ZM142.585 42.816C141.273 42.816 140.217 42.512 139.417 41.904C138.617 41.264 138.041 40.432 137.689 39.408C137.337 38.352 137.161 37.216 137.161 36C137.161 35.2 137.225 34.4 137.353 33.6C137.481 32.768 137.657 31.952 137.881 31.152C137.177 32.016 136.345 32.96 135.385 33.984C134.425 35.008 133.417 36.016 132.361 37.008C131.337 38 130.393 38.88 129.529 39.648C128.665 40.384 127.977 40.896 127.465 41.184C127.593 41.408 127.657 41.616 127.657 41.808C127.657 42.256 127.401 42.48 126.889 42.48C126.665 42.48 126.425 42.4 126.169 42.24C125.913 42.08 125.705 41.824 125.545 41.472C125.417 41.216 125.353 40.896 125.353 40.512C125.353 39.552 125.673 38.384 126.313 37.008C126.953 35.632 127.737 34.192 128.665 32.688C129.593 31.184 130.473 29.776 131.305 28.464C131.081 28.304 130.937 28.144 130.873 27.984C130.809 27.824 130.777 27.712 130.777 27.648C130.745 27.552 130.761 27.472 130.825 27.408C130.889 27.312 130.985 27.312 131.113 27.408C131.209 27.632 131.385 27.824 131.641 27.984C131.833 27.696 132.281 26.992 132.985 25.872C133.721 24.72 134.649 23.312 135.769 21.648C136.921 19.952 138.217 18.144 139.657 16.224C141.129 14.304 142.697 12.416 144.361 10.56C146.057 8.672 147.785 6.96 149.545 5.424C151.337 3.856 153.129 2.608 154.921 1.68C156.713 0.751999 158.457 0.287999 160.153 0.287999C161.753 0.287999 162.921 0.687999 163.657 1.488C164.425 2.288 164.809 3.344 164.809 4.656C164.809 6.48 164.409 8.256 163.609 9.984C162.809 11.68 161.737 13.312 160.393 14.88C159.081 16.416 157.609 17.872 155.977 19.248C154.345 20.624 152.681 21.888 150.985 23.04C149.353 24.16 147.593 25.152 145.705 26.016C143.817 26.848 141.993 27.536 140.233 28.08C140.393 28.208 140.537 28.368 140.665 28.56C140.825 28.752 141.001 28.976 141.193 29.232C141.257 29.36 141.289 29.472 141.289 29.568C141.289 29.76 141.257 29.968 141.193 30.192C141.129 30.384 141.065 30.528 141.001 30.624C140.329 31.648 139.817 32.72 139.465 33.84C139.113 34.96 138.937 36.032 138.937 37.056C138.937 38.4 139.273 39.536 139.945 40.464C140.617 41.392 141.673 41.856 143.113 41.856C143.849 41.856 144.665 41.728 145.561 41.472C146.457 41.216 147.449 40.784 148.537 40.176C149.945 39.504 151.369 38.688 152.809 37.728C154.249 36.768 155.561 35.808 156.745 34.848C157.097 34.56 157.417 34.32 157.705 34.128C158.025 33.936 158.345 33.68 158.665 33.36C158.729 33.328 158.809 33.312 158.905 33.312C159.001 33.312 159.049 33.36 159.049 33.456C159.049 33.552 158.985 33.68 158.857 33.84C158.665 34.064 158.233 34.48 157.561 35.088C156.889 35.696 156.057 36.384 155.065 37.152C154.105 37.92 153.049 38.672 151.897 39.408C150.777 40.144 149.641 40.784 148.489 41.328C147.849 41.648 146.969 41.968 145.849 42.288C144.761 42.64 143.673 42.816 142.585 42.816ZM133.033 28.368C133.705 28.368 134.713 28.208 136.057 27.888C137.401 27.568 138.905 27.12 140.569 26.544C142.233 25.936 143.929 25.232 145.657 24.432C147.385 23.6 148.969 22.688 150.409 21.696C151.337 21.056 152.377 20.272 153.529 19.344C154.681 18.384 155.849 17.328 157.033 16.176C158.217 14.992 159.305 13.76 160.297 12.48C161.289 11.168 162.089 9.84 162.697 8.496C163.305 7.12 163.609 5.776 163.609 4.464C163.609 2.544 162.457 1.584 160.153 1.584C159.321 1.584 158.361 1.856 157.273 2.4C156.185 2.912 155.049 3.6 153.865 4.464C152.681 5.328 151.497 6.288 150.313 7.344C149.129 8.368 148.025 9.408 147.001 10.464C146.009 11.52 145.145 12.48 144.409 13.344C142.969 15.104 141.481 16.944 139.945 18.864C138.441 20.784 137.065 22.576 135.817 24.24C134.601 25.904 133.673 27.28 133.033 28.368ZM127.273 40.176C127.561 40.016 128.057 39.632 128.761 39.024C129.497 38.416 130.329 37.664 131.257 36.768C132.185 35.872 133.113 34.944 134.041 33.984C135.001 33.024 135.881 32.128 136.681 31.296C137.481 30.432 138.105 29.744 138.553 29.232C138.617 29.072 138.681 28.928 138.745 28.8C138.809 28.64 138.873 28.512 138.937 28.416C137.081 28.896 135.465 29.136 134.089 29.136C133.865 29.136 133.641 29.136 133.417 29.136C133.193 29.104 132.985 29.072 132.793 29.04H132.745C132.073 30.032 131.385 31.088 130.681 32.208C130.009 33.296 129.385 34.368 128.809 35.424C128.265 36.448 127.849 37.376 127.561 38.208C127.273 39.04 127.177 39.696 127.273 40.176ZM164.868 25.776C164.292 25.776 164.004 25.456 164.004 24.816C164.004 24.56 164.068 24.304 164.196 24.048C164.292 23.792 164.612 23.584 165.156 23.424C165.7 23.232 166.276 23.104 166.884 23.04C167.524 22.944 168.02 22.896 168.372 22.896C168.66 22.896 168.804 22.912 168.804 22.944C168.804 23.008 168.644 23.104 168.324 23.232C168.004 23.36 167.668 23.52 167.316 23.712C166.964 23.904 166.724 24.128 166.596 24.384C166.436 24.8 166.18 25.136 165.828 25.392C165.508 25.648 165.188 25.776 164.868 25.776ZM156.708 42.384C155.812 42.384 155.028 42.224 154.356 41.904C153.684 41.552 153.348 40.928 153.348 40.032C153.348 39.072 153.588 38.128 154.068 37.2C154.548 36.272 155.124 35.424 155.796 34.656C156.468 33.856 157.124 33.168 157.764 32.592C158.436 31.984 158.932 31.536 159.252 31.248C158.964 31.184 159.012 30.896 159.396 30.384C159.78 29.872 160.34 29.456 161.076 29.136C161.268 29.072 161.444 29.04 161.604 29.04C161.956 29.04 162.308 29.12 162.66 29.28C163.044 29.44 163.236 29.664 163.236 29.952C163.236 30.112 163.172 30.272 163.044 30.432C162.916 30.592 162.788 30.72 162.66 30.816C162.404 31.008 162.004 31.344 161.46 31.824C160.916 32.304 160.324 32.848 159.684 33.456C159.044 34.064 158.436 34.672 157.86 35.28C157.316 35.856 156.884 36.336 156.564 36.72C155.38 38.224 154.788 39.392 154.788 40.224C154.788 41.12 155.508 41.568 156.948 41.568C158.132 41.568 159.284 41.392 160.404 41.04C161.556 40.656 162.628 40.208 163.62 39.696C165.188 38.896 166.644 37.936 167.988 36.816C169.332 35.664 170.724 34.512 172.164 33.36C172.228 33.328 172.308 33.312 172.404 33.312C172.5 33.312 172.548 33.36 172.548 33.456C172.548 33.552 172.484 33.68 172.356 33.84C172.164 34.096 171.764 34.528 171.156 35.136C170.548 35.712 169.78 36.368 168.852 37.104C167.956 37.84 166.948 38.576 165.828 39.312C164.74 40.016 163.62 40.624 162.468 41.136C161.86 41.392 160.996 41.664 159.876 41.952C158.788 42.24 157.732 42.384 156.708 42.384ZM169.071 42.768C168.559 42.832 168.207 42.752 168.015 42.528C167.823 42.336 167.727 42.048 167.727 41.664C167.727 41.12 167.855 40.48 168.111 39.744C168.399 39.008 168.719 38.272 169.071 37.536C169.423 36.768 169.695 36.096 169.887 35.52C170.239 34.496 170.559 33.488 170.847 32.496C171.135 31.472 171.279 30.608 171.279 29.904C171.279 29.04 171.023 28.512 170.511 28.32C170.095 28.128 169.887 27.904 169.887 27.648C169.887 27.52 169.983 27.456 170.175 27.456C170.239 27.456 170.303 27.456 170.367 27.456C170.431 27.456 170.511 27.472 170.607 27.504C170.863 27.568 171.135 27.664 171.423 27.792C171.743 27.888 172.047 28.016 172.335 28.176C172.655 28.368 172.943 28.592 173.199 28.848C173.487 29.104 173.631 29.504 173.631 30.048C173.631 30.432 173.567 30.832 173.439 31.248C173.247 31.952 172.975 32.736 172.623 33.6C172.303 34.464 171.935 35.344 171.519 36.24C171.391 36.56 171.199 37.04 170.943 37.68C170.687 38.288 170.335 39.2 169.887 40.416C171.263 38.72 172.687 37.072 174.159 35.472C175.631 33.84 177.071 32.368 178.479 31.056C179.887 29.744 181.183 28.688 182.367 27.888C183.551 27.056 184.543 26.608 185.343 26.544C185.599 26.512 185.855 26.576 186.111 26.736C186.399 26.896 186.543 27.168 186.543 27.552C186.543 27.616 186.527 27.696 186.495 27.792C186.495 27.856 186.479 27.936 186.447 28.032C186.415 28.16 186.335 28.224 186.207 28.224C186.111 28.192 186.047 28.144 186.015 28.08C186.015 28.016 186.015 27.936 186.015 27.84C186.047 27.712 185.951 27.68 185.727 27.744C185.215 27.776 184.415 28.16 183.327 28.896C182.239 29.632 181.039 30.56 179.727 31.68C178.415 32.8 177.103 33.984 175.791 35.232C174.511 36.448 173.375 37.6 172.383 38.688C171.391 39.744 170.687 40.592 170.271 41.232C170.015 41.648 169.791 42 169.599 42.288C169.407 42.608 169.231 42.768 169.071 42.768ZM194.452 42.624C193.716 42.624 193.012 42.544 192.34 42.384C191.7 42.224 191.108 41.984 190.564 41.664C189.86 41.216 189.332 40.704 188.98 40.128C188.66 39.52 188.5 38.88 188.5 38.208C188.5 37.088 188.884 35.92 189.652 34.704C190.42 33.488 191.428 32.336 192.676 31.248C193.956 30.128 195.3 29.2 196.708 28.464C197.54 28.016 198.372 27.696 199.204 27.504C200.036 27.312 200.772 27.216 201.412 27.216C202.468 27.216 203.156 27.424 203.476 27.84C203.828 28.224 204.004 28.672 204.004 29.184C204.004 29.792 203.812 30.368 203.428 30.912C203.076 31.456 202.548 32 201.844 32.544C200.596 33.536 198.9 34.432 196.756 35.232C194.644 36.032 192.452 36.592 190.18 36.912C190.02 37.232 189.876 37.552 189.748 37.872C189.652 38.192 189.604 38.512 189.604 38.832C189.604 39.536 189.828 40.112 190.276 40.56C190.756 40.976 191.348 41.28 192.052 41.472C192.788 41.632 193.54 41.712 194.308 41.712C194.692 41.712 195.076 41.696 195.46 41.664C195.844 41.632 196.196 41.584 196.516 41.52C198.18 41.168 199.86 40.56 201.556 39.696C203.284 38.832 204.948 37.84 206.548 36.72C208.148 35.6 209.588 34.48 210.868 33.36C210.932 33.328 211.012 33.312 211.108 33.312C211.236 33.312 211.3 33.344 211.3 33.408C211.3 33.504 211.236 33.632 211.108 33.792C210.884 34.176 210.42 34.672 209.716 35.28C209.044 35.888 208.26 36.512 207.364 37.152C206.5 37.792 205.652 38.4 204.82 38.976C203.988 39.52 203.3 39.952 202.756 40.272C201.572 40.944 200.244 41.504 198.772 41.952C197.3 42.4 195.86 42.624 194.452 42.624ZM190.612 36.096C191.348 35.936 192.228 35.728 193.252 35.472C194.276 35.184 195.332 34.848 196.42 34.464C197.54 34.048 198.564 33.6 199.492 33.12C200.42 32.608 201.14 32.064 201.652 31.488C202.164 30.944 202.42 30.384 202.42 29.808C202.42 29.552 202.324 29.344 202.132 29.184C201.94 28.992 201.556 28.896 200.98 28.896C200.308 28.896 199.508 29.104 198.58 29.52C197.652 29.936 196.676 30.496 195.652 31.2C194.66 31.904 193.716 32.688 192.82 33.552C191.924 34.384 191.188 35.232 190.612 36.096Z" fill="#7C7C7C"/>
</svg>
